<svg width="112" height="132" viewBox="0 0 112 132" fill="none" xmlns="http://www.w3.org/2000/svg">
<path d="M29.952 131.048C22.7413 131.048 16.9813 128.872 12.672 124.52C8.40533 120.168 6.272 114.451 6.272 107.368V102.248H23.552V107.368C23.552 109.288 24.1067 110.845 25.216 112.04C26.3253 113.192 27.904 113.768 29.952 113.768C32 113.768 33.5787 113.192 34.688 112.04C35.7973 110.845 36.352 109.288 36.352 107.368V97.512C36.352 96.4027 36.3093 95.528 36.224 94.888C36.1387 94.248 35.904 93.736 35.52 93.352C35.1787 92.968 34.56 92.6267 33.664 92.328C32.8107 91.9867 31.5733 91.5813 29.952 91.112C24.0213 89.32 19.4347 87.8053 16.192 86.568C12.9493 85.288 10.624 83.9227 9.216 82.472C7.808 81.0213 6.95467 79.144 6.656 76.84C6.4 74.4933 6.272 71.3573 6.272 67.432V54.632C6.272 47.5067 8.40533 41.7893 12.672 37.48C16.9813 33.128 22.7413 30.952 29.952 30.952C37.2053 30.952 42.9653 33.128 47.232 37.48C51.4987 41.7893 53.632 47.5067 53.632 54.632V59.752H36.352V54.632C36.352 52.712 35.7973 51.176 34.688 50.024C33.5787 48.8293 32 48.232 29.952 48.232C27.904 48.232 26.3253 48.8293 25.216 50.024C24.1067 51.176 23.552 52.712 23.552 54.632V67.432C23.552 68.5413 23.5947 69.416 23.68 70.056C23.7653 70.696 23.9787 71.208 24.32 71.592C24.704 71.976 25.344 72.3387 26.24 72.68C27.136 72.9787 28.3733 73.3627 29.952 73.832C35.8827 75.624 40.4693 77.16 43.712 78.44C46.9547 79.6773 49.28 81.0213 50.688 82.472C52.096 83.9227 52.928 85.8213 53.184 88.168C53.4827 90.472 53.632 93.5867 53.632 97.512V107.368C53.632 114.451 51.4987 120.168 47.232 124.52C42.9653 128.872 37.2053 131.048 29.952 131.048Z" fill="white"/>
<path d="M57.344 127V31H81.024C88.2773 31 94.0373 33.176 98.304 37.528C102.571 41.8373 104.704 47.5547 104.704 54.68V64.92C104.704 68.632 104.085 72.024 102.848 75.096C101.653 78.1253 99.9253 80.664 97.664 82.712L97.28 75.928C99.968 77.8907 102.08 80.5147 103.616 83.8C105.195 87.0853 105.984 90.8187 105.984 95V103.32C105.984 110.403 103.851 116.12 99.584 120.472C95.3173 124.824 89.5573 127 82.304 127H57.344ZM74.624 109.72H82.304C84.352 109.72 85.9307 109.144 87.04 107.992C88.1493 106.797 88.704 105.24 88.704 103.32V95C88.704 93.08 88.1493 91.544 87.04 90.392C85.9307 89.1973 84.352 88.6 82.304 88.6H74.624V109.72ZM74.624 71.32H81.024C83.072 71.32 84.6507 70.744 85.76 69.592C86.8693 68.3973 87.424 66.84 87.424 64.92V54.68C87.424 52.76 86.8693 51.224 85.76 50.072C84.6507 48.8773 83.072 48.28 81.024 48.28H74.624V71.32Z" fill="#2822C7"/>
</svg>
