<svg width="653" height="130" viewBox="0 0 653 130" fill="none" xmlns="http://www.w3.org/2000/svg">
<path d="M652.296 91.2768L609.989 122.114V104.245L647.461 77.2878V87.8051L609.989 60.4397V44L652.296 74.9392V91.2768Z" fill="white"/>
<path d="M610.294 91.2768L567.987 122.114V104.245L605.459 77.2878V87.8051L567.987 60.4397V44L610.294 74.9392V91.2768Z" fill="white"/>
<path d="M0.000339508 74.8371L42.3066 44V61.8692L4.83534 88.8262L4.83534 78.3089L42.3066 105.674V122.114L0.000339508 91.1747L0.000339508 74.8371Z" fill="white"/>
<path d="M77.9618 129.048C70.7511 129.048 64.9911 126.872 60.6818 122.52C56.4151 118.168 54.2818 112.451 54.2818 105.368V100.248H71.5618V105.368C71.5618 107.288 72.1164 108.845 73.2258 110.04C74.3351 111.192 75.9138 111.768 77.9618 111.768C80.0098 111.768 81.5884 111.192 82.6978 110.04C83.8071 108.845 84.3618 107.288 84.3618 105.368V95.512C84.3618 94.4027 84.3191 93.528 84.2338 92.888C84.1484 92.248 83.9138 91.736 83.5298 91.352C83.1884 90.968 82.5698 90.6267 81.6738 90.328C80.8204 89.9867 79.5831 89.5813 77.9618 89.112C72.0311 87.32 67.4444 85.8053 64.2018 84.568C60.9591 83.288 58.6338 81.9227 57.2258 80.472C55.8178 79.0213 54.9644 77.144 54.6658 74.84C54.4098 72.4933 54.2818 69.3573 54.2818 65.432V52.632C54.2818 45.5067 56.4151 39.7893 60.6818 35.48C64.9911 31.128 70.7511 28.952 77.9618 28.952C85.2151 28.952 90.9751 31.128 95.2418 35.48C99.5084 39.7893 101.642 45.5067 101.642 52.632V57.752H84.3618V52.632C84.3618 50.712 83.8071 49.176 82.6978 48.024C81.5884 46.8293 80.0098 46.232 77.9618 46.232C75.9138 46.232 74.3351 46.8293 73.2258 48.024C72.1164 49.176 71.5618 50.712 71.5618 52.632V65.432C71.5618 66.5413 71.6044 67.416 71.6898 68.056C71.7751 68.696 71.9884 69.208 72.3298 69.592C72.7138 69.976 73.3538 70.3387 74.2498 70.68C75.1458 70.9787 76.3831 71.3627 77.9618 71.832C83.8924 73.624 88.4791 75.16 91.7218 76.44C94.9644 77.6773 97.2898 79.0213 98.6978 80.472C100.106 81.9227 100.938 83.8213 101.194 86.168C101.492 88.472 101.642 91.5867 101.642 95.512V105.368C101.642 112.451 99.5084 118.168 95.2418 122.52C90.9751 126.872 85.2151 129.048 77.9618 129.048ZM115.062 127V31H131.062V67.352L128.246 63.64C129.611 60.8667 131.51 58.7333 133.942 57.24C136.374 55.704 139.382 54.936 142.966 54.936C145.739 54.936 148.406 55.4907 150.966 56.6C153.568 57.7093 155.702 59.6293 157.366 62.36C159.03 65.048 159.862 68.76 159.862 73.496V127H143.862V77.336C143.862 75.416 143.307 73.88 142.198 72.728C141.088 71.5333 139.51 70.936 137.462 70.936C135.414 70.936 133.835 71.5333 132.726 72.728C131.616 73.88 131.062 75.416 131.062 77.336V127H115.062ZM188.261 128.664C182.501 128.664 178.106 126.872 175.077 123.288C172.09 119.661 170.597 115.075 170.597 109.528C170.597 106.328 171.066 103.619 172.005 101.4C172.943 99.1813 174.181 97.3253 175.717 95.832C177.295 94.296 179.045 92.9947 180.965 91.928C183.141 90.6907 185.381 89.6667 187.685 88.856C189.989 88.0027 192.122 87.1707 194.085 86.36C196.047 85.5067 197.626 84.4827 198.821 83.288C200.058 82.0933 200.677 80.536 200.677 78.616V77.336C200.677 75.416 200.122 73.88 199.013 72.728C197.903 71.5333 196.325 70.936 194.277 70.936C192.229 70.936 190.65 71.5333 189.541 72.728C188.431 73.88 187.877 75.416 187.877 77.336V81.176H171.877V78.616C171.877 71.4907 173.903 65.7733 177.957 61.464C182.01 57.112 187.45 54.936 194.277 54.936C198.842 54.936 202.789 55.9173 206.117 57.88C209.487 59.8427 212.09 62.616 213.925 66.2C215.759 69.7413 216.677 73.88 216.677 78.616V127H200.677V115.992L203.493 119.576C202.17 122.52 200.186 124.781 197.541 126.36C194.938 127.896 191.845 128.664 188.261 128.664ZM193.509 113.944C195.301 113.944 196.943 113.411 198.437 112.344C199.93 111.277 200.677 109.379 200.677 106.648V96.792C199.567 97.7733 198.202 98.5413 196.581 99.096C194.959 99.608 193.295 100.291 191.589 101.144C189.882 101.955 188.623 102.872 187.813 103.896C187.002 104.877 186.597 106.093 186.597 107.544C186.597 109.208 187.173 110.701 188.325 112.024C189.477 113.304 191.205 113.944 193.509 113.944ZM246.428 128.664C243.654 128.664 240.966 128.045 238.364 126.808C235.804 125.571 233.692 123.352 232.028 120.152C230.364 116.909 229.532 112.28 229.532 106.264V77.336C229.532 71.32 230.364 66.6907 232.028 63.448C233.692 60.2053 235.804 57.9867 238.364 56.792C240.966 55.5547 243.654 54.936 246.428 54.936C250.012 54.936 253.02 55.704 255.452 57.24C257.926 58.7333 259.825 60.8667 261.148 63.64L258.332 67.352V31H274.332V127H258.332V116.248L261.148 119.96C259.825 122.691 257.926 124.824 255.452 126.36C253.02 127.896 250.012 128.664 246.428 128.664ZM251.932 112.664C253.98 112.664 255.558 112.088 256.668 110.936C257.777 109.741 258.332 108.184 258.332 106.264V77.336C258.332 75.416 257.777 73.88 256.668 72.728C255.558 71.5333 253.98 70.936 251.932 70.936C249.884 70.936 248.305 71.5333 247.196 72.728C246.086 73.88 245.532 75.416 245.532 77.336V106.264C245.532 108.184 246.086 109.741 247.196 110.936C248.305 112.088 249.884 112.664 251.932 112.664ZM291.229 127V31H314.909C322.162 31 327.922 33.176 332.189 37.528C336.455 41.8373 338.589 47.5547 338.589 54.68V64.92C338.589 68.632 337.97 72.024 336.733 75.096C335.538 78.1253 333.81 80.664 331.549 82.712L331.165 75.928C333.853 77.8907 335.965 80.5147 337.501 83.8C339.079 87.0853 339.869 90.8187 339.869 95V103.32C339.869 110.403 337.735 116.12 333.469 120.472C329.202 124.824 323.442 127 316.189 127H291.229ZM308.509 109.72H316.189C318.237 109.72 319.815 109.144 320.925 107.992C322.034 106.797 322.589 105.24 322.589 103.32V95C322.589 93.08 322.034 91.544 320.925 90.392C319.815 89.1973 318.237 88.6 316.189 88.6H308.509V109.72ZM308.509 71.32H314.909C316.957 71.32 318.535 70.744 319.645 69.592C320.754 68.3973 321.309 66.84 321.309 64.92V54.68C321.309 52.76 320.754 51.224 319.645 50.072C318.535 48.8773 316.957 48.28 314.909 48.28H308.509V71.32ZM374.164 128.664C369.598 128.664 365.63 127.683 362.26 125.72C358.932 123.715 356.35 120.941 354.516 117.4C352.681 113.859 351.764 109.72 351.764 104.984V78.616C351.764 73.88 352.681 69.7413 354.516 66.2C356.35 62.616 358.932 59.8427 362.26 57.88C365.63 55.9173 369.598 54.936 374.164 54.936C381.033 54.936 386.473 57.112 390.484 61.464C394.537 65.7733 396.564 71.4907 396.564 78.616V104.984C396.564 112.067 394.537 117.784 390.484 122.136C386.473 126.488 381.033 128.664 374.164 128.664ZM374.164 112.664C376.212 112.664 377.79 112.088 378.9 110.936C380.009 109.741 380.564 108.184 380.564 106.264V77.336C380.564 75.416 380.009 73.88 378.9 72.728C377.79 71.5333 376.212 70.936 374.164 70.936C372.116 70.936 370.537 71.5333 369.428 72.728C368.318 73.88 367.764 75.416 367.764 77.336V106.264C367.764 108.184 368.318 109.741 369.428 110.936C370.537 112.088 372.116 112.664 374.164 112.664ZM423.386 128.664C417.626 128.664 413.231 126.872 410.202 123.288C407.215 119.661 405.722 115.075 405.722 109.528C405.722 106.328 406.191 103.619 407.13 101.4C408.068 99.1813 409.306 97.3253 410.842 95.832C412.42 94.296 414.17 92.9947 416.09 91.928C418.266 90.6907 420.506 89.6667 422.81 88.856C425.114 88.0027 427.247 87.1707 429.21 86.36C431.172 85.5067 432.751 84.4827 433.946 83.288C435.183 82.0933 435.802 80.536 435.802 78.616V77.336C435.802 75.416 435.247 73.88 434.138 72.728C433.028 71.5333 431.45 70.936 429.402 70.936C427.354 70.936 425.775 71.5333 424.666 72.728C423.556 73.88 423.002 75.416 423.002 77.336V81.176H407.002V78.616C407.002 71.4907 409.028 65.7733 413.082 61.464C417.135 57.112 422.575 54.936 429.402 54.936C433.967 54.936 437.914 55.9173 441.242 57.88C444.612 59.8427 447.215 62.616 449.05 66.2C450.884 69.7413 451.802 73.88 451.802 78.616V127H435.802V115.992L438.618 119.576C437.295 122.52 435.311 124.781 432.666 126.36C430.063 127.896 426.97 128.664 423.386 128.664ZM428.634 113.944C430.426 113.944 432.068 113.411 433.562 112.344C435.055 111.277 435.802 109.379 435.802 106.648V96.792C434.692 97.7733 433.327 98.5413 431.706 99.096C430.084 99.608 428.42 100.291 426.714 101.144C425.007 101.955 423.748 102.872 422.938 103.896C422.127 104.877 421.722 106.093 421.722 107.544C421.722 109.208 422.298 110.701 423.45 112.024C424.602 113.304 426.33 113.944 428.634 113.944ZM465.937 127V56.6H481.937V68.12L478.993 64.664C480.401 61.6347 482.385 59.3947 484.945 57.944C487.505 56.4507 490.47 55.704 493.841 55.704H497.041V71.704H488.337C486.289 71.704 484.71 72.1733 483.601 73.112C482.491 74.008 481.937 75.416 481.937 77.336V127H465.937ZM520.178 128.664C517.404 128.664 514.716 128.045 512.114 126.808C509.554 125.571 507.442 123.352 505.778 120.152C504.114 116.909 503.282 112.28 503.282 106.264V77.336C503.282 71.32 504.114 66.6907 505.778 63.448C507.442 60.2053 509.554 57.9867 512.114 56.792C514.716 55.5547 517.404 54.936 520.178 54.936C523.762 54.936 526.77 55.704 529.202 57.24C531.676 58.7333 533.575 60.8667 534.898 63.64L532.082 67.352V31H548.082V127H532.082V116.248L534.898 119.96C533.575 122.691 531.676 124.824 529.202 126.36C526.77 127.896 523.762 128.664 520.178 128.664ZM525.682 112.664C527.73 112.664 529.308 112.088 530.418 110.936C531.527 109.741 532.082 108.184 532.082 106.264V77.336C532.082 75.416 531.527 73.88 530.418 72.728C529.308 71.5333 527.73 70.936 525.682 70.936C523.634 70.936 522.055 71.5333 520.946 72.728C519.836 73.88 519.282 75.416 519.282 77.336V106.264C519.282 108.184 519.836 109.741 520.946 110.936C522.055 112.088 523.634 112.664 525.682 112.664Z" fill="#0F4784"/>
</svg>
